<svg width="19" height="26" viewBox="0 0 19 26" fill="none" xmlns="http://www.w3.org/2000/svg">
<path d="M16.2295 22.3224H17.1468V24.7556H6.92231V22.3224H16.2295ZM7.63364 1.34917C8.36369 1.11885 9.62537 1.23401 9.67404 2.05868V7.20355C9.67404 7.4933 9.87247 7.73847 10.1458 7.80534C11.078 8.1248 12.2049 8.36997 13.3281 8.61143C15.3422 9.04977 17.3527 9.48439 17.7458 10.1307V16.6872C17.6522 17.9762 15.7316 19.0312 15.5369 21.078H8.30754C7.3229 19.1909 5.91146 17.9651 5.32368 16.4903C5.30496 16.4458 5.2825 16.4012 5.25629 16.364C4.03205 14.6181 2.38849 14.4101 1.60977 13.8677C0.789863 13.2957 1.41134 10.7251 3.33194 11.5683L6.03501 12.8685C6.43935 13.0617 6.94851 12.7831 6.93354 12.2741L6.91482 1.99553C6.91856 1.70206 7.23305 1.47547 7.63364 1.34917ZM5.66811 1.98438L5.68309 11.3195L3.81116 10.4205C0.688779 9.16121 -1.16818 13.0245 0.827302 14.8336C1.28031 15.2422 3.56032 15.8886 4.19303 17.0253C5.20387 19.1018 5.83659 19.3544 6.87738 21.078C6.46181 21.078 5.66811 20.9777 5.66811 21.7021V25.3796C5.66811 25.7214 5.9489 26 6.29708 26H17.7758C18.1202 26 18.401 25.7214 18.401 25.3796V21.7021C18.401 20.9183 17.4538 21.078 16.8024 21.078C17.0644 19.4695 18.7005 18.7897 18.9888 16.8284L19 10.0007H18.9963C19 8.11366 13.0922 7.40786 10.9282 6.75407V2.05868H10.9245C10.8908 -0.771935 5.69058 -0.575055 5.66811 1.98438Z" fill="white"/>
</svg>
