<svg width="22" height="24" viewBox="0 0 22 24" fill="none" xmlns="http://www.w3.org/2000/svg">
<path d="M0 6.43506V11.8633C0 12.1023 0.0821326 12.3315 0.228329 12.5005C0.374526 12.6694 0.572812 12.7644 0.779565 12.7644H1.87V23.3833C1.87 23.5299 1.92039 23.6705 2.01008 23.7741C2.09977 23.8778 2.22142 23.936 2.34826 23.936H19.6517C19.7786 23.936 19.9002 23.8778 19.9899 23.7741C20.0796 23.6705 20.13 23.5299 20.13 23.3833V12.7644H21.2204C21.4272 12.7644 21.6255 12.6694 21.7717 12.5005C21.9179 12.3315 22 12.1023 22 11.8633V6.43506C22 6.19609 21.9179 5.96691 21.7717 5.79793C21.6255 5.62896 21.4272 5.53403 21.2204 5.53403H14.5248C16.5048 5.16919 17.7578 4.03047 17.7578 2.55455C17.752 2.23535 17.6777 1.92282 17.5417 1.64496C17.4056 1.36711 17.212 1.13263 16.9783 0.962546C16.5892 0.670673 16.1497 0.480394 15.6904 0.404973C15.2311 0.329551 14.7632 0.370803 14.3191 0.525851C12.693 1.23894 11.6313 2.95808 11.0861 4.08022C10.5074 2.87516 9.35478 0.95149 7.5613 0.166544C7.08664 0.00191086 6.58667 -0.0413384 6.09609 0.0397997C5.60552 0.120938 5.1361 0.324519 4.72044 0.636406C4.47109 0.816291 4.26445 1.06513 4.11916 1.36045C3.97387 1.65577 3.89452 1.98826 3.88826 2.32791C3.88826 3.9365 5.32304 5.17472 7.53261 5.53403H0.779565C0.677191 5.53403 0.57582 5.55733 0.481238 5.60261C0.386657 5.64789 0.300719 5.71426 0.228329 5.79793C0.15594 5.8816 0.0985175 5.98093 0.0593406 6.09025C0.0201638 6.19957 0 6.31673 0 6.43506ZM9.17783 22.8305H2.82652V12.7644H9.17783V22.8305ZM11.8657 22.8305H10.1343V6.63959H11.8657V22.8305ZM19.1735 22.8305H12.8222V12.7644H19.1735V22.8305ZM21.0435 6.63959V11.6588H12.8222V6.63959H21.0435ZM14.6348 1.55402C14.8047 1.49046 14.9823 1.45874 15.1609 1.46005C15.6025 1.45357 16.0362 1.59569 16.4091 1.8691C16.517 1.93904 16.6075 2.03982 16.6719 2.16178C16.7364 2.28373 16.7727 2.42278 16.7774 2.5656C16.7774 3.51086 15.6248 4.30686 13.97 4.51139C13.1043 4.61641 12.3726 4.68275 11.8513 4.72144C12.3152 3.74302 13.2526 2.1676 14.6348 1.55402ZM4.82087 2.32791C4.83072 2.16544 4.8763 2.00857 4.9533 1.87216C5.03031 1.73576 5.13617 1.62435 5.26087 1.54849C5.67435 1.24707 6.15421 1.0897 6.64304 1.09521C6.83974 1.09143 7.03552 1.12696 7.22174 1.20024C8.77131 1.88016 9.79957 3.66011 10.2922 4.71039C9.72783 4.67169 8.90043 4.59983 7.92478 4.47822C6.37043 4.29027 4.82087 3.54955 4.82087 2.32791ZM0.956522 6.63959H9.17783V11.6588H0.956522V6.63959Z" fill="white"/>
</svg>
