<svg width="80" height="56" viewBox="0 0 80 56" fill="none" xmlns="http://www.w3.org/2000/svg">
<path d="M79.9296 28.0805C79.9128 28.0201 79.9162 27.9564 79.8927 27.9027C79.8257 27.7383 79.7251 27.5907 79.6011 27.4666C79.6011 27.4666 79.6011 27.4633 79.5977 27.4633L64.0791 12.0024C63.8277 11.7542 63.4891 11.6133 63.1337 11.6133L52.9288 11.6066V5.20954C52.9288 2.33808 50.5955 0 47.7224 0H5.21309C2.34338 0 0.00335248 2.33808 0.00335248 5.20954L0 43.8903C0 46.7617 2.33667 49.0998 5.20974 49.0998H10.6106C11.2509 53.0111 14.6503 56 18.737 56C22.8236 56 26.2197 53.0078 26.8633 49.0998H55.9125C56.5528 53.0111 59.9522 56 64.0355 56C68.1222 56 71.5182 53.0078 72.1619 49.0998H78.6188C79.3597 49.0998 79.9564 48.4993 79.9598 47.7614L80 28.4193C79.9966 28.2986 79.9598 28.1912 79.9296 28.0805ZM75.4071 27.0742H67.2874L68.1691 24.8099C68.4373 24.1188 68.0987 23.3406 67.4048 23.0722C66.7108 22.8039 65.9364 23.1427 65.6648 23.8371L64.4043 27.0742H53.0495V14.2902L62.5839 14.3002L75.4071 27.0742ZM5.21309 2.6836H47.7291C49.1204 2.6836 50.2502 3.81742 50.2502 5.20954V12.945C50.2502 13.1194 50.2971 13.2872 50.3675 13.4415V33.7194H2.68533V20.07H26.2867V21.4654C26.2767 22.8777 27.1215 23.5016 27.621 23.7431C27.9361 23.8974 28.2647 23.9746 28.5932 23.9746C29.3106 23.9746 29.837 23.6257 30.1655 23.3641L38.7277 16.6953C39.415 16.1553 39.7972 15.4609 39.7972 14.7363C39.8005 14.052 39.4686 13.4146 38.8685 12.9383C35.9485 10.6338 33.0118 8.34599 30.0683 6.06493C28.9285 5.18941 27.2858 5.50473 26.6287 6.69893C26.4242 7.07464 26.3102 7.53756 26.3001 8.08099C26.2867 8.5372 26.2867 8.99006 26.2867 9.44627H2.68533V5.21289C2.68868 3.81742 3.81846 2.6836 5.21309 2.6836ZM28.9687 10.0199C28.9653 9.57038 28.9653 9.11753 28.9687 8.61435C31.597 10.6505 34.2187 12.6968 36.8436 14.7631L28.9687 20.8952L28.972 18.7282C28.972 17.9868 28.3686 17.3864 27.6311 17.3864H2.68868V12.1265H27.6311C28.372 12.1265 28.972 11.5261 28.972 10.7847L28.9687 10.0199ZM18.737 53.3164C15.6762 53.3164 13.1853 50.8207 13.1853 47.758C13.1853 44.6953 15.6762 42.1996 18.737 42.1996C21.7978 42.1996 24.2886 44.6953 24.2886 47.758C24.2886 50.8207 21.7978 53.3164 18.737 53.3164ZM18.737 39.516C14.6503 39.516 11.2542 42.5082 10.6106 46.4162H5.20974C3.81846 46.4162 2.68533 45.2824 2.68533 43.8903V36.403H50.3642V46.4162H26.8633C26.2197 42.5049 22.8203 39.516 18.737 39.516ZM64.0322 53.3164C60.9714 53.3164 58.4838 50.8207 58.4838 47.758C58.4838 44.6953 60.9714 42.1996 64.0322 42.1996C67.093 42.1996 69.5839 44.6953 69.5839 47.758C69.5839 50.8207 67.0963 53.3164 64.0322 53.3164ZM72.1586 46.4162C71.5182 42.5049 68.1189 39.516 64.0322 39.516C59.9489 39.516 56.5528 42.5082 55.9091 46.4162H53.0461V29.7578H77.308L77.2744 46.4162H72.1586Z" fill="#909BC2"/>
<path d="M8.5791 27.6411C9.29008 27.6411 9.86645 27.0647 9.86645 26.3538C9.86645 25.6428 9.29008 25.0664 8.5791 25.0664C7.86811 25.0664 7.29175 25.6428 7.29175 26.3538C7.29175 27.0647 7.86811 27.6411 8.5791 27.6411Z" fill="#909BC2"/>
<path d="M13.5939 27.6411C14.3049 27.6411 14.8812 27.0647 14.8812 26.3538C14.8812 25.6428 14.3049 25.0664 13.5939 25.0664C12.8829 25.0664 12.3065 25.6428 12.3065 26.3538C12.3065 27.0647 12.8829 27.6411 13.5939 27.6411Z" fill="#909BC2"/>
<path d="M18.6128 27.6411C19.3238 27.6411 19.9001 27.0647 19.9001 26.3538C19.9001 25.6428 19.3238 25.0664 18.6128 25.0664C17.9018 25.0664 17.3254 25.6428 17.3254 26.3538C17.3254 27.0647 17.9018 27.6411 18.6128 27.6411Z" fill="#909BC2"/>
<path d="M18.7474 50.0793C20.0453 50.0793 21.0975 49.0271 21.0975 47.7292C21.0975 46.4313 20.0453 45.3792 18.7474 45.3792C17.4495 45.3792 16.3973 46.4313 16.3973 47.7292C16.3973 49.0271 17.4495 50.0793 18.7474 50.0793Z" fill="#909BC2"/>
<path d="M63.878 50.0793C65.1759 50.0793 66.2281 49.0271 66.2281 47.7292C66.2281 46.4313 65.1759 45.3792 63.878 45.3792C62.5801 45.3792 61.528 46.4313 61.528 47.7292C61.528 49.0271 62.5801 50.0793 63.878 50.0793Z" fill="#909BC2"/>
</svg>
