<svg width="64" height="74" viewBox="0 0 64 74" fill="none" xmlns="http://www.w3.org/2000/svg">
<path d="M61.5711 2.42513C60.8043 1.65281 59.8904 1.04052 58.8829 0.624117C57.8754 0.207712 56.7945 -0.00444397 55.7037 7.05627e-05H8.29624C6.09673 0.00261936 3.98803 0.873472 2.43274 2.42159C0.877449 3.96971 0.00256067 6.06868 5.69923e-08 8.25805V20.0553C-4.82187e-05 20.2102 0.0305731 20.3636 0.090115 20.5068C0.149657 20.6499 0.236952 20.78 0.347013 20.8896C0.457073 20.9991 0.587741 21.086 0.731551 21.1453C0.875361 21.2045 1.02949 21.235 1.18514 21.235H14.2222V42.47H1.18514C1.02949 42.4699 0.875361 42.5004 0.731551 42.5597C0.587741 42.619 0.457073 42.7058 0.347013 42.8154C0.236952 42.9249 0.149657 43.055 0.090115 43.1982C0.0305731 43.3413 -4.82187e-05 43.4947 5.69923e-08 43.6497V55.4468C0.00256061 57.6362 0.877445 59.7351 2.43273 61.2833C3.98802 62.8314 6.09672 63.7023 8.29624 63.7049H32V71.9629C32 72.1716 32.0556 72.3767 32.1613 72.5571C32.2669 72.7375 32.4187 72.8867 32.6013 72.9896C32.7838 73.0925 32.9905 73.1453 33.2002 73.1427C33.41 73.14 33.6152 73.0821 33.7951 72.9747L39.1111 69.7995L44.427 72.9747C44.6069 73.0821 44.8122 73.1401 45.0219 73.1428C45.2317 73.1454 45.4384 73.0926 45.6209 72.9897C45.8035 72.8868 45.9553 72.7375 46.0609 72.5571C46.1666 72.3767 46.2222 72.1717 46.2222 71.9629V63.7049H55.7037C57.9032 63.7022 60.0118 62.8313 61.5671 61.2832C63.1224 59.7351 63.9973 57.6362 63.9999 55.4468V8.25805C64.005 7.17389 63.7928 6.09963 63.3757 5.09809C62.9587 4.09654 62.3452 3.18784 61.5711 2.42513ZM2.37029 18.8756V8.25768C2.37217 6.69385 2.99711 5.19461 4.10804 4.08883C5.21897 2.98305 6.72517 2.36102 8.29624 2.35918C9.86717 2.36169 11.373 2.98399 12.4838 4.08971C13.5946 5.19542 14.2197 6.69436 14.2222 8.25805V18.876L2.37029 18.8756ZM2.37029 55.4472V44.8292H14.2222V55.4472C14.2194 57.0107 13.5942 58.5095 12.4835 59.6151C11.3728 60.7207 9.86706 61.343 8.29624 61.3458C6.72509 61.3439 5.21881 60.7218 4.10787 59.6159C2.99693 58.5101 2.37204 57.0107 2.37029 55.4468V55.4472ZM30.4507 49.8651C30.4074 49.8213 30.3608 49.7808 30.3113 49.7441C30.0984 49.5815 29.926 49.3722 29.8078 49.1324C29.6895 48.8926 29.6285 48.6289 29.6296 48.3618C29.6306 48.0947 29.6937 47.8314 29.8139 47.5925C29.934 47.3537 30.108 47.1457 30.3222 46.9849C30.8293 46.6063 31.2407 46.1152 31.5237 45.5506C31.8067 44.986 31.9536 44.3635 31.9526 43.7326C31.9516 43.5237 31.9336 43.3153 31.8987 43.1094C31.8923 43.0458 31.8906 42.9819 31.8935 42.9181C31.895 42.6736 31.948 42.432 32.0491 42.2091C32.1501 41.9862 32.2971 41.7869 32.4804 41.624C32.6637 41.4612 32.8792 41.3384 33.1132 41.2636C33.3471 41.1889 33.5942 41.1638 33.8385 41.19C34.0415 41.2246 34.2471 41.2423 34.453 41.243C35.089 41.2438 35.7164 41.0965 36.2851 40.8131C36.8538 40.5296 37.3481 40.1178 37.7285 39.6105C37.897 39.4061 38.1092 39.2416 38.3496 39.129C38.59 39.0165 38.8525 38.9587 39.1182 38.9598C39.3838 38.9609 39.6459 39.0209 39.8853 39.1355C40.1247 39.25 40.3355 39.4162 40.5023 39.622C40.9494 40.2063 41.5462 40.6601 42.2301 40.9358C42.914 41.2114 43.6599 41.2989 44.3894 41.1889C44.4235 41.1846 44.458 41.1826 44.4924 41.183C44.7559 41.1764 45.0177 41.2263 45.2601 41.3294C45.5025 41.4324 45.7197 41.5863 45.897 41.7804C46.0596 41.9618 46.1816 42.1757 46.2547 42.4077C46.3278 42.6397 46.3505 42.8846 46.3211 43.126C46.2875 43.3266 46.2703 43.5296 46.2697 43.733C46.2691 44.3662 46.4173 44.9907 46.7022 45.5567C46.9871 46.1228 47.401 46.6148 47.9108 46.9934C48.1228 47.1553 48.2946 47.3635 48.4128 47.6021C48.531 47.8406 48.5925 48.103 48.5925 48.369C48.5925 48.6349 48.531 48.8974 48.4128 49.1359C48.2946 49.3744 48.1228 49.5827 47.9108 49.7446C47.8743 49.7727 47.8393 49.8027 47.8059 49.8344C47.3248 50.212 46.9365 50.6937 46.6703 51.2429C46.4041 51.7922 46.2671 52.3946 46.2697 53.0044C46.2706 53.2133 46.2885 53.4217 46.3234 53.6277C46.3298 53.6913 46.3316 53.7552 46.3287 53.819C46.3308 54.1645 46.2243 54.502 46.0242 54.7844C45.8899 54.9856 45.7144 55.1563 45.5093 55.2856C45.3042 55.4148 45.074 55.4996 44.8338 55.5344C44.685 55.559 44.5336 55.5631 44.3836 55.5466C44.1806 55.512 43.9751 55.4943 43.7691 55.4936C43.1331 55.4929 42.5057 55.6401 41.937 55.9235C41.3683 56.2069 40.8741 56.6187 40.4936 57.126C40.3252 57.3304 40.1131 57.4949 39.8728 57.6074C39.6326 57.72 39.3701 57.7779 39.1045 57.7769C38.839 57.776 38.577 57.7161 38.3375 57.6017C38.0981 57.4873 37.8873 57.3213 37.7204 57.1157C37.3401 56.6109 36.8467 56.2015 36.2795 55.9199C35.7123 55.6383 35.0869 55.4924 34.453 55.4936C34.2451 55.4944 34.0376 55.5125 33.8327 55.5477C33.7986 55.552 33.7641 55.5539 33.7297 55.5535C33.6097 55.5552 33.4898 55.5479 33.3709 55.5316C33.1335 55.4939 32.9063 55.4084 32.7031 55.2805C32.5 55.1525 32.3251 54.9848 32.1892 54.7874C31.9499 54.4445 31.8472 54.0252 31.901 53.6111C31.9347 53.4105 31.9519 53.2074 31.9526 53.0039C31.9594 52.4014 31.8276 51.8052 31.5673 51.2612C31.307 50.7171 30.9251 50.2396 30.4507 49.8651ZM43.8517 69.8788L39.7211 67.4123C39.5368 67.3022 39.326 67.244 39.1111 67.244C38.8962 67.244 38.6854 67.3022 38.5012 67.4123L34.3704 69.8788V57.8684C34.4213 57.8639 34.4705 57.8644 34.5201 57.8645C34.6063 57.8623 34.6926 57.8666 34.7781 57.8775C34.8337 57.8896 34.8885 57.9049 34.9424 57.9233C35.0227 57.943 35.1013 57.969 35.1774 58.0011C35.2487 58.0382 35.3172 58.0806 35.3821 58.128C35.432 58.1569 35.4803 58.1885 35.5268 58.2226C35.6374 58.3143 35.7373 58.4181 35.8246 58.5321C36.2069 59.0384 36.7022 59.4495 37.2713 59.7329C37.8404 60.0163 38.4678 60.1644 39.1042 60.1654C39.7405 60.1664 40.3684 60.0203 40.9384 59.7387C41.5085 59.4571 42.005 59.0476 42.389 58.5424C42.5493 58.3288 42.7575 58.1552 42.997 58.0357C43.2365 57.9161 43.5007 57.8537 43.7686 57.8536C43.7931 57.8536 43.8221 57.8556 43.8513 57.8576V69.8788H43.8517ZM61.6296 55.4468C61.6269 57.0104 61.0017 58.5091 59.8909 59.6147C58.7802 60.7203 57.2745 61.3427 55.7037 61.3454H46.2222V57.5562C46.9319 57.2511 47.5407 56.7527 47.9785 56.1185C48.4495 55.4435 48.701 54.6408 48.699 53.819C48.7029 53.62 48.6895 53.4211 48.6591 53.2245C48.6467 53.1518 48.6403 53.0782 48.64 53.0044C48.6386 52.7453 48.6976 52.4894 48.8125 52.2569C48.9274 52.0244 49.095 51.8216 49.302 51.6646C49.3246 51.6474 49.3553 51.6197 49.3853 51.592C49.8811 51.2057 50.2812 50.7111 50.5547 50.1465C50.8282 49.5819 50.9678 48.9624 50.9627 48.3356C50.9576 47.7088 50.808 47.0916 50.5254 46.5315C50.2427 45.9713 49.8347 45.4833 49.3327 45.105C49.1179 44.9457 48.9434 44.7387 48.8231 44.5005C48.7029 44.2623 48.6402 43.9994 48.64 43.7328C48.6409 43.6463 48.6491 43.5599 48.6645 43.4747C48.7423 42.8956 48.695 42.3066 48.5258 41.7471C48.3566 41.1877 48.0694 40.6706 47.6833 40.2304C47.2973 39.7903 46.8213 39.4373 46.2872 39.1949C45.7531 38.9525 45.1732 38.8264 44.5862 38.825C44.3942 38.8208 44.2021 38.8327 44.0121 38.8607C43.7088 38.9026 43.3998 38.864 43.1164 38.7489C42.8329 38.6338 42.585 38.4462 42.3977 38.2051C42.0153 37.6988 41.5201 37.2877 40.951 37.0043C40.3819 36.7209 39.7544 36.5728 39.1181 36.5718C38.4817 36.5708 37.8538 36.7169 37.2838 36.9985C36.7138 37.2801 36.2172 37.6897 35.8333 38.1948C35.6729 38.4085 35.4648 38.582 35.2253 38.7016C34.9858 38.8211 34.7216 38.8835 34.4536 38.8837C34.3665 38.8827 34.2796 38.8742 34.1939 38.8583C33.6122 38.781 33.0205 38.8281 32.4586 38.9966C31.8966 39.1651 31.3773 39.451 30.9352 39.8353C30.4932 40.2195 30.1386 40.6933 29.8952 41.2248C29.6518 41.7564 29.5251 42.3336 29.5237 42.9177C29.5199 43.1167 29.5333 43.3155 29.5637 43.5122C29.576 43.5849 29.5824 43.6585 29.5828 43.7322C29.583 43.9966 29.5216 44.2575 29.4033 44.4942C29.285 44.7309 29.113 44.937 28.901 45.0963C28.3978 45.4729 27.9882 45.9595 27.7037 46.5185C27.4192 47.0776 27.2675 47.6942 27.2602 48.3208C27.2528 48.9474 27.3901 49.5673 27.6615 50.1328C27.9328 50.6983 28.3309 51.1942 28.8252 51.5824C28.8554 51.6115 28.8873 51.6388 28.9207 51.6642C29.1277 51.8213 29.2953 52.024 29.4102 52.2565C29.5251 52.4891 29.5842 52.7449 29.5828 53.0041C29.5819 53.0868 29.5742 53.1692 29.5596 53.2507C29.4172 54.2527 29.6549 55.2717 30.2262 56.1089C30.6686 56.748 31.2835 57.2496 32 57.5559V61.3454H14.0972L14.1562 61.2867C14.9323 60.5236 15.5475 59.614 15.9659 58.6112C16.3842 57.6084 16.5973 56.5326 16.5925 55.4468V8.25805C16.5975 7.17391 16.3853 6.09965 15.9683 5.09811C15.5513 4.09657 14.9378 3.18786 14.1638 2.42513L14.0972 2.35954H55.7037C57.2745 2.36206 58.7803 2.98431 59.8911 4.08995C61.0019 5.19558 61.6271 6.69443 61.6296 8.25805V55.4468ZM55.7037 18.8752C55.7037 19.0302 55.6731 19.1836 55.6136 19.3267C55.554 19.4699 55.4667 19.6 55.3567 19.7095C55.2466 19.8191 55.1159 19.906 54.9721 19.9652C54.8283 20.0245 54.6742 20.055 54.5185 20.0549H23.7037C23.5471 20.0565 23.3916 20.0272 23.2464 19.9686C23.1013 19.91 22.9692 19.8234 22.8578 19.7137C22.7465 19.604 22.6581 19.4734 22.5978 19.3294C22.5375 19.1855 22.5064 19.0311 22.5064 18.8752C22.5064 18.7192 22.5375 18.5649 22.5978 18.4209C22.6581 18.277 22.7465 18.1464 22.8578 18.0367C22.9692 17.927 23.1013 17.8404 23.2464 17.7818C23.3916 17.7232 23.5471 17.6939 23.7037 17.6955H54.5185C54.6742 17.6954 54.8284 17.7259 54.9722 17.7852C55.116 17.8445 55.2467 17.9315 55.3568 18.0411C55.4669 18.1507 55.5541 18.2808 55.6137 18.424C55.6732 18.5672 55.7038 18.7206 55.7037 18.8756V18.8752ZM55.7037 24.7738C55.7037 24.9287 55.6731 25.0821 55.6136 25.2253C55.554 25.3684 55.4667 25.4985 55.3567 25.6081C55.2466 25.7176 55.1159 25.8045 54.9721 25.8638C54.8283 25.9231 54.6742 25.9536 54.5185 25.9535H23.7037C23.5471 25.9551 23.3916 25.9258 23.2464 25.8672C23.1013 25.8086 22.9692 25.722 22.8578 25.6123C22.7465 25.5026 22.6581 25.372 22.5978 25.2281C22.5375 25.0842 22.5064 24.9298 22.5064 24.7738C22.5064 24.6179 22.5375 24.4635 22.5978 24.3196C22.6581 24.1756 22.7465 24.045 22.8578 23.9353C22.9692 23.8256 23.1013 23.739 23.2464 23.6804C23.3916 23.6218 23.5471 23.5925 23.7037 23.5941H54.5185C54.6742 23.594 54.8284 23.6245 54.9722 23.6838C55.116 23.7431 55.2467 23.83 55.3568 23.9396C55.4669 24.0492 55.5541 24.1793 55.6137 24.3225C55.6732 24.4657 55.7038 24.6192 55.7037 24.7741V24.7738ZM22.5184 12.977C22.5184 12.822 22.549 12.6686 22.6086 12.5254C22.6681 12.3823 22.7554 12.2522 22.8655 12.1426C22.9756 12.0331 23.1062 11.9462 23.2501 11.8869C23.3939 11.8276 23.548 11.7971 23.7037 11.7972H35.5555C35.8678 11.8004 36.1661 11.926 36.3858 12.1469C36.6055 12.3678 36.7287 12.6661 36.7287 12.9769C36.7287 13.2878 36.6055 13.586 36.3858 13.8069C36.1661 14.0278 35.8678 14.1535 35.5555 14.1567H23.7037C23.5481 14.1567 23.3939 14.1262 23.2501 14.067C23.1063 14.0077 22.9756 13.9208 22.8655 13.8113C22.7555 13.7017 22.6682 13.5716 22.6086 13.4285C22.5491 13.2854 22.5184 13.1319 22.5184 12.977ZM55.7037 30.6727C55.7037 30.8277 55.6731 30.9811 55.6136 31.1242C55.554 31.2674 55.4667 31.3975 55.3567 31.507C55.2466 31.6166 55.1159 31.7034 54.9721 31.7627C54.8283 31.822 54.6742 31.8525 54.5185 31.8524H23.7037C23.3894 31.8524 23.0879 31.7281 22.8657 31.5069C22.6434 31.2857 22.5186 30.9856 22.5186 30.6727C22.5186 30.3599 22.6434 30.0598 22.8657 29.8386C23.0879 29.6174 23.3894 29.4931 23.7037 29.4931H54.5185C54.6742 29.493 54.8283 29.5235 54.9721 29.5828C55.1159 29.642 55.2466 29.7289 55.3567 29.8385C55.4667 29.948 55.554 30.0781 55.6136 30.2212C55.6731 30.3644 55.7037 30.5178 55.7037 30.6727ZM39.1111 53.0874C40.0487 53.0875 40.9653 52.8107 41.7449 52.2922C42.5246 51.7737 43.1322 51.0367 43.4911 50.1744C43.8499 49.3122 43.9438 48.3633 43.7609 47.4479C43.578 46.5325 43.1265 45.6917 42.4635 45.0317C41.8005 44.3718 40.9557 43.9223 40.0361 43.7402C39.1165 43.5581 38.1633 43.6516 37.297 44.0087C36.4307 44.3659 35.6903 44.9707 35.1693 45.7468C34.6484 46.5228 34.3704 47.4352 34.3704 48.3685C34.3717 49.6196 34.8716 50.8191 35.7603 51.7038C36.6491 52.5885 37.8541 53.0861 39.1111 53.0874ZM39.1111 46.0091C39.5799 46.0091 40.0382 46.1475 40.428 46.4068C40.8178 46.6661 41.1216 47.0346 41.301 47.4657C41.4804 47.8969 41.5274 48.3713 41.4359 48.829C41.3444 49.2867 41.1187 49.7071 40.7871 50.0371C40.4556 50.367 40.0332 50.5917 39.5734 50.6828C39.1136 50.7738 38.637 50.727 38.2039 50.5484C37.7707 50.3698 37.4005 50.0674 37.1401 49.6794C36.8796 49.2913 36.7406 48.8352 36.7406 48.3685C36.7414 47.743 36.9914 47.1433 37.4358 46.701C37.8801 46.2586 38.4826 46.0098 39.1111 46.0091Z" fill="#909BC2"/>
</svg>
