<svg width="61" height="74" viewBox="0 0 61 74" fill="none" xmlns="http://www.w3.org/2000/svg">
<path d="M30.7907 7.06382C30.6986 6.92275 30.635 6.76471 30.6035 6.59877C30.572 6.43282 30.5733 6.26223 30.6072 6.09677C30.6411 5.9313 30.707 5.77422 30.8011 5.63453C30.8952 5.49484 31.0156 5.37528 31.1555 5.28271L38.8069 0.211607C39.0886 0.0242897 39.4324 -0.0423179 39.7627 0.0264375C40.093 0.0951928 40.3827 0.293679 40.5682 0.578231C40.7536 0.862783 40.8195 1.21009 40.7515 1.54375C40.6834 1.87742 40.4869 2.1701 40.2052 2.35742L32.5526 7.4298C32.2709 7.61642 31.9273 7.68243 31.5974 7.61332C31.2675 7.54422 30.9783 7.34565 30.7933 7.06125L30.7907 7.06382ZM26.5589 11.1538C26.8065 11.1541 27.0487 11.0809 27.2555 10.9432L28.4288 10.1663C28.5684 10.0736 28.6885 9.95396 28.7823 9.81432C28.8761 9.67467 28.9417 9.51774 28.9755 9.35247C29.0093 9.18719 29.0105 9.01682 28.979 8.85108C28.9476 8.68534 28.8842 8.52747 28.7924 8.38649C28.7006 8.24551 28.5822 8.12418 28.4439 8.02942C28.3057 7.93467 28.1503 7.86835 27.9867 7.83424C27.8231 7.80014 27.6545 7.79892 27.4904 7.83066C27.3263 7.8624 27.1701 7.92647 27.0305 8.01922L25.8584 8.79613C25.6297 8.94781 25.4555 9.17002 25.3617 9.42971C25.268 9.68941 25.2597 9.97273 25.3381 10.2376C25.4165 10.5024 25.5774 10.7346 25.7969 10.8997C26.0163 11.0648 26.2827 11.1539 26.5563 11.1538H26.5589ZM41.3048 45.4406L40.6959 45.8451C40.4141 46.0324 40.2174 46.3251 40.1493 46.6589C40.0811 46.9927 40.1469 47.3402 40.3324 47.6249C40.5178 47.9096 40.8076 48.1083 41.138 48.1771C41.4684 48.246 41.8124 48.1795 42.0943 47.9922L42.7032 47.5877C42.8427 47.4949 42.9628 47.3753 43.0566 47.2357C43.1504 47.096 43.2161 46.9391 43.2498 46.7738C43.2836 46.6085 43.2848 46.4382 43.2534 46.2724C43.222 46.1067 43.1585 45.9488 43.0667 45.8078C42.9749 45.6669 42.8565 45.5455 42.7183 45.4508C42.58 45.356 42.4247 45.2897 42.2611 45.2556C42.0975 45.2215 41.9288 45.2203 41.7647 45.252C41.6007 45.2837 41.4444 45.3478 41.3048 45.4406ZM51.0372 38.9851L44.6926 43.1933C44.4107 43.3806 44.2141 43.6734 44.1459 44.0072C44.0777 44.3409 44.1436 44.6884 44.329 44.9731C44.5145 45.2579 44.8043 45.4565 45.1347 45.5254C45.4651 45.5943 45.8091 45.5277 46.0909 45.3404L52.4355 41.1322C52.5751 41.0395 52.6952 40.9199 52.789 40.7802C52.8828 40.6406 52.9484 40.4837 52.9822 40.3184C53.0159 40.1531 53.0171 39.9828 52.9857 39.817C52.9543 39.6513 52.8909 39.4934 52.7991 39.3524C52.7072 39.2114 52.5888 39.0901 52.4506 38.9954C52.3124 38.9006 52.157 38.8343 51.9934 38.8002C51.8298 38.7661 51.6612 38.7648 51.4971 38.7966C51.333 38.8283 51.1767 38.8924 51.0372 38.9851ZM60.8903 27.5819C60.7577 28.244 60.4959 28.8729 60.1203 29.4317C59.7447 29.9906 59.2628 30.4684 58.7025 30.8372L36.445 45.5972C36.2302 48.1912 35.1878 57.6682 31.2649 61.1804C29.5408 62.7521 27.5765 64.0318 25.4478 64.9699L26.5144 65.8161C26.7591 66.0103 26.9248 66.2884 26.98 66.5977C27.0353 66.9071 26.9764 67.2261 26.8144 67.4945L23.255 73.3836C23.1415 73.572 22.9819 73.7276 22.7915 73.8356C22.6011 73.9436 22.3865 74.0002 22.1681 74C21.9351 74.0005 21.7066 73.9351 21.5084 73.8112C21.2207 73.6339 21.0145 73.3484 20.9352 73.0175C20.8558 72.6867 20.9097 72.3375 21.0851 72.0468L24.0521 67.1311L5.99081 52.7962L2.23441 57.1815C2.12515 57.3092 1.99206 57.4139 1.84276 57.4896C1.69346 57.5653 1.53086 57.6105 1.36424 57.6227C1.19762 57.635 1.03025 57.6139 0.871691 57.5608C0.713127 57.5077 0.566474 57.4235 0.440103 57.3131C0.313731 57.2028 0.210117 57.0683 0.135178 56.9175C0.0602381 56.7667 0.0154404 56.6024 0.00334103 56.4341C-0.00875829 56.2658 0.012078 56.0967 0.0646611 55.9366C0.117244 55.7764 0.200544 55.6282 0.309804 55.5006L4.85944 50.1868C5.07327 49.9368 5.37424 49.7797 5.69977 49.7482C6.02529 49.7166 6.35035 49.813 6.60734 50.0173L9.26035 52.122C10.2055 50.8152 10.7887 49.2775 10.9498 47.6673C10.9727 47.1536 10.9714 46.5308 10.9714 45.8335C10.9714 42.0645 10.9803 36.5286 13.9129 33.1988L13.5176 32.5888L13.5024 32.5708V32.5567L12.0112 30.2619C11.2726 29.1243 11.0109 27.7372 11.2835 26.4049C11.5562 25.0726 12.3409 23.904 13.4655 23.1555L41.5959 4.51222C42.1535 4.14125 42.7781 3.88509 43.4339 3.7584C44.0897 3.63171 44.7637 3.637 45.4175 3.77395C46.0712 3.91089 46.6918 4.17682 47.2437 4.55648C47.7955 4.93613 48.2677 5.42206 48.6333 5.98642L50.1867 8.37879C50.1867 8.37879 50.1994 8.38906 50.2033 8.39548C50.2071 8.4019 50.2033 8.4096 50.2109 8.41602L60.1619 23.732C60.5303 24.2937 60.7846 24.9237 60.9101 25.5855C61.0355 26.2473 61.0297 26.9276 60.8928 27.5871L60.8903 27.5819ZM14.1278 28.8442L14.935 30.0873L47.3723 8.72294L46.5066 7.38999C46.3244 7.108 46.0889 6.86517 45.8135 6.67544C45.5381 6.48572 45.2283 6.35285 44.9019 6.28447C44.5755 6.21609 44.2389 6.21355 43.9115 6.277C43.5842 6.34045 43.2724 6.46863 42.9943 6.65417L14.8638 25.3013C14.5849 25.4863 14.345 25.7251 14.1578 26.0041C13.9706 26.2831 13.8399 26.5968 13.7731 26.927C13.7029 27.2553 13.6984 27.5945 13.7597 27.9246C13.8211 28.2547 13.9471 28.5691 14.1303 28.8494L14.1278 28.8442ZM33.6967 47.4207L30.5708 49.4946C30.4065 49.5992 30.2367 49.6948 30.0623 49.781C29.8627 52.2684 28.7301 55.2553 23.9453 58.0291C23.8006 58.1134 23.6408 58.1681 23.4751 58.19C23.3095 58.212 23.1412 58.2007 22.9798 58.157C22.8184 58.1132 22.6672 58.0378 22.5347 57.935C22.4022 57.8322 22.291 57.704 22.2076 57.5578C22.1241 57.4116 22.0699 57.2502 22.0482 57.0828C22.0265 56.9155 22.0376 56.7455 22.0809 56.5825C22.1242 56.4195 22.1989 56.2667 22.3007 56.1328C22.4025 55.999 22.5293 55.8867 22.6741 55.8023C27.8237 52.8167 27.6534 49.9749 27.5047 47.4644C27.3644 46.7708 27.3647 46.0556 27.5057 45.3622C27.6466 44.6687 27.9252 44.0113 28.3246 43.4296C29.3606 42.2328 30.8225 40.4632 31.9806 39.0494C32.4057 38.5264 32.6874 37.8997 32.7974 37.2322C32.9073 36.5646 32.8418 35.8796 32.6073 35.2457L32.4954 34.9465C32.4216 34.7482 32.3004 34.5714 32.1425 34.4318C31.9847 34.2923 31.7951 34.1944 31.5907 34.1469C31.3863 34.0993 31.1735 34.1036 30.9711 34.1593C30.7688 34.215 30.5832 34.3205 30.431 34.4662L19.2101 45.2068C18.9653 45.4413 18.6383 45.568 18.3011 45.559C17.9639 45.5499 17.6441 45.406 17.4119 45.1587C17.1798 44.9114 17.0544 44.5812 17.0634 44.2405C17.0723 43.8999 17.2148 43.5768 17.4596 43.3423L19.3359 41.5445L15.3825 35.4602C13.5201 38.171 13.5151 42.6951 13.5138 45.8335C13.5138 46.5732 13.5138 47.2345 13.4896 47.779C13.3005 49.9254 12.5295 51.9777 11.2612 53.7105L23.0936 63.1014C25.5048 62.3095 27.7169 60.9976 29.5767 59.2567C31.9818 57.107 33.1971 51.3065 33.6967 47.4207ZM58.0377 25.1408L48.7668 10.87L16.3321 32.2395L21.2109 39.7505L28.6805 32.5952C29.1374 32.1574 29.6944 31.8407 30.3019 31.6734C30.9094 31.5061 31.5485 31.4933 32.1621 31.6362C32.7757 31.7792 33.3447 32.0734 33.8183 32.4926C34.292 32.9118 34.6554 33.4429 34.8764 34.0386L34.9895 34.3442C35.3802 35.401 35.4891 36.543 35.3053 37.6557C35.1214 38.7684 34.6513 39.8128 33.942 40.6841C32.7674 42.1185 31.289 43.9111 30.239 45.1208C29.9887 45.6385 29.9103 46.2239 30.0153 46.7902L57.308 28.6837C57.5874 28.4999 57.828 28.2621 58.0161 27.9839C58.2041 27.7058 58.3358 27.3928 58.4036 27.063C58.4714 26.7333 58.474 26.3932 58.4112 26.0624C58.3484 25.7316 58.2215 25.4167 58.0377 25.1356V25.1408ZM47.3761 15.8756L42.0205 19.4083C41.738 19.5943 41.5402 19.886 41.4706 20.2193C41.4009 20.5526 41.4653 20.9002 41.6493 21.1856C41.8334 21.471 42.1222 21.6708 42.4521 21.7412C42.7821 21.8115 43.1262 21.7465 43.4087 21.5606L48.7643 18.0317C49.0468 17.8458 49.2446 17.5541 49.3142 17.2207C49.3838 16.8874 49.3195 16.5399 49.1355 16.2545C48.9514 15.9691 48.6626 15.7692 48.3327 15.6989C48.0027 15.6286 47.6586 15.6935 47.3761 15.8795V15.8756ZM20.3554 67.3584C20.2422 67.2349 20.1033 67.1384 19.9486 67.0759C19.635 66.9461 19.2834 66.9461 18.9698 67.0759C18.8148 67.1384 18.6754 67.2349 18.5617 67.3584C18.4393 67.4723 18.3441 67.6128 18.2833 67.7693C18.2217 67.9244 18.191 68.0902 18.1931 68.2573C18.19 68.4245 18.2207 68.5905 18.2833 68.7453C18.3442 68.9055 18.4392 69.0502 18.5617 69.169C18.6788 69.2885 18.8173 69.3844 18.9698 69.4516C19.125 69.5073 19.2881 69.5377 19.4529 69.5414C19.661 69.5394 19.8656 69.4863 20.0489 69.3866C20.2322 69.2869 20.3888 69.1437 20.5051 68.9693C20.6215 68.7949 20.6941 68.5946 20.7167 68.3855C20.7394 68.1765 20.7113 67.965 20.6351 67.7693C20.5683 67.6158 20.4734 67.4764 20.3554 67.3584Z" fill="#909BC2"/>
</svg>
