<svg width="61" height="60" viewBox="0 0 61 60" fill="none" xmlns="http://www.w3.org/2000/svg">
<path d="M43.8378 58.8269C35.1378 58.8269 28.0378 51.7269 28.0378 43.0269C28.0378 41.0269 28.4378 39.1269 29.1378 37.2269L31.0378 37.9269C30.4378 39.5269 30.1378 41.2269 30.1378 42.9269C30.1378 50.5269 36.3378 56.7269 43.9378 56.7269C51.5378 56.7269 57.7378 50.5269 57.7378 42.9269C57.7378 35.3269 51.5378 29.1269 43.9378 29.1269C43.6378 29.1269 42.0378 29.5269 40.7378 29.8269L40.1378 27.9269C41.5378 27.5269 43.3378 27.1269 43.8378 27.1269C52.5378 27.1269 59.6378 34.2269 59.6378 42.9269C59.7378 51.7269 52.6378 58.8269 43.8378 58.8269Z" fill="#909BC2" stroke="#909BC2"/>
<path d="M43.1378 44.2269C41.1378 44.2269 39.5378 43.8269 39.3378 43.7269L39.1378 43.6269L20.0378 33.1269L4.53783 29.5269C3.33783 29.2269 2.23783 28.5269 1.63783 27.4269C1.03783 26.3269 0.837829 25.0269 1.13783 23.8269L4.53783 9.72692C5.03783 8.02692 6.53783 6.72692 8.23783 6.52692L30.9378 1.12692C34.3378 0.626917 37.6378 1.62692 40.2378 3.72692L52.4378 12.3269C54.5378 14.0269 55.9378 15.2269 55.4378 18.4269L53.1378 30.1269L51.1378 29.7269L53.3378 18.0269C53.6378 15.9269 53.0378 15.4269 51.0378 13.7269L50.8378 13.5269L38.9378 5.12692C36.7378 3.32692 33.9378 2.52692 31.2378 2.92692L8.53783 8.32692C7.43783 8.52692 6.63783 9.12692 6.43783 10.1269L3.03783 24.2269C2.83783 24.9269 2.93783 25.6269 3.23783 26.2269C3.53783 26.8269 4.13783 27.2269 4.83783 27.4269L20.7378 31.1269L39.8378 41.6269C41.4378 42.0269 45.6378 42.5269 47.0378 40.5269C49.1378 37.6269 47.4378 35.2269 47.1378 34.8269L29.8378 21.3269L30.0378 20.6269C30.6378 18.8269 31.9378 17.5269 33.7378 17.0269C33.8378 16.9269 34.3378 16.5269 34.6378 16.2269C35.5378 15.3269 36.2378 14.7269 37.0378 14.9269C37.4378 15.0269 37.7378 15.2269 37.8378 15.6269C38.9378 18.2269 42.0378 19.0269 43.8378 19.5269C44.9378 19.8269 45.7378 20.0269 45.8378 20.9269V21.0269L44.8378 29.1269L42.8378 28.9269L43.7378 21.6269C43.6378 21.6269 43.4378 21.5269 43.2378 21.5269C41.3378 21.0269 38.0378 20.1269 36.2378 17.3269C36.0378 17.5269 35.8378 17.6269 35.7378 17.8269C35.0378 18.5269 34.5378 18.9269 34.0378 19.1269C32.9378 19.4269 32.3378 20.2269 31.9378 20.8269L48.5378 33.8269C49.7378 35.1269 51.2378 38.5269 48.6378 42.1269C47.5378 43.8269 45.1378 44.2269 43.1378 44.2269Z" fill="#909BC2" stroke="#909BC2"/>
</svg>
