<svg width="69" height="50" viewBox="0 0 69 50" fill="none" xmlns="http://www.w3.org/2000/svg">
<path d="M53.3678 18.4751C52.4226 18.4751 51.5501 18.5484 50.6776 18.695V6.23167C50.6776 2.1261 43.9157 0 37.2993 0C30.6828 0 23.921 2.1261 23.921 6.23167V15.6158C21.3762 14.0762 17.3045 13.3431 13.3783 13.3431C6.68915 13.3431 0 15.4692 0 19.5748V32.9912C0 37.0968 6.76185 39.2229 13.3783 39.2229C18.177 39.2229 23.0485 38.1232 25.3751 35.9238C27.7018 38.1232 32.5732 39.2229 37.372 39.2229C37.8082 39.2229 38.1718 39.1496 38.608 39.1496C40.5711 45.5279 46.4605 50 53.3678 50C62.02 50 69 42.8886 69 34.2375C69 25.5865 61.9473 18.4751 53.3678 18.4751ZM23.921 32.9912C23.921 34.1642 20.2129 36.4369 13.3783 36.4369C6.54373 36.4369 2.76291 34.1642 2.76291 32.9912V30.2786C5.30769 31.8182 9.37935 32.5513 13.3056 32.5513C17.2318 32.5513 21.3035 31.7449 23.8483 30.2786V32.9912H23.921ZM23.921 26.3197C23.921 27.4927 20.2129 29.7654 13.3783 29.7654C6.54373 29.7654 2.76291 27.4927 2.76291 26.3197V23.607C5.30769 25.1466 9.37935 25.8798 13.3056 25.8798C17.2318 25.8798 21.3035 25.0733 23.8483 23.607V26.3197H23.921ZM13.3056 23.0205C6.47102 23.0205 2.76291 20.7478 2.76291 19.5748C2.76291 18.4018 6.47102 16.2023 13.3056 16.2023C20.1401 16.2023 23.8483 18.4751 23.8483 19.6481C23.8483 20.8211 20.1401 23.0205 13.3056 23.0205ZM37.2993 2.78592C44.1338 2.78592 47.8419 5.05865 47.8419 6.23167C47.8419 7.40469 44.1338 9.67742 37.2993 9.67742C30.4647 9.67742 26.6839 7.40469 26.6839 6.23167C26.6839 5.05865 30.4647 2.78592 37.2993 2.78592ZM26.6839 10.1906C29.2287 11.7302 33.3003 12.4633 37.2266 12.4633C41.2255 12.4633 45.2244 11.6569 47.7692 10.1906V12.9032C47.7692 14.0762 44.0611 16.349 37.2266 16.349C30.392 16.349 26.6839 14.0762 26.6839 12.9032V10.1906ZM26.6839 16.9355C29.2287 18.4751 33.3003 19.2082 37.2266 19.2082C41.2255 19.2082 45.2244 18.4018 47.7692 16.9355V19.5015C45.9515 20.1613 44.3519 21.1877 42.8978 22.434C41.3709 22.8006 39.4805 23.0938 37.1538 23.0938C30.3193 23.0938 26.6112 20.8211 26.6112 19.6481V16.9355H26.6839ZM26.6839 23.607C29.2287 25.1466 33.3003 25.8798 37.2266 25.8798C38.1718 25.8798 39.1897 25.8065 40.1349 25.7331C39.3351 26.9795 38.7534 28.2991 38.3172 29.6921C37.9536 29.6921 37.5901 29.6921 37.2266 29.6921C30.392 29.6921 26.6839 27.4194 26.6839 26.2463V23.607ZM37.2993 36.4369C30.4647 36.4369 26.7566 34.1642 26.7566 32.9912V30.2786C29.3014 31.8182 33.373 32.5513 37.2993 32.5513C37.4447 32.5513 37.6628 32.5513 37.8082 32.5513C37.7355 33.0645 37.7355 33.651 37.7355 34.2375C37.7355 34.9707 37.8082 35.7038 37.8809 36.4369C37.6628 36.4369 37.5174 36.4369 37.2993 36.4369ZM53.3678 47.2141C46.3151 47.2141 40.4984 41.4223 40.4984 34.2375C40.4984 27.0528 46.2424 21.261 53.3678 21.261C60.4931 21.261 66.2371 27.0528 66.2371 34.2375C66.2371 41.4223 60.4204 47.2141 53.3678 47.2141Z" fill="#909BC2"/>
<path d="M54.9675 26.3196H50.3142C50.096 26.3196 49.8779 26.5395 49.8779 26.6861V33.5776H48.351C48.1329 33.5776 47.9148 33.7976 47.9148 34.0175V35.7771C47.9148 35.997 48.1329 36.1436 48.351 36.1436H49.8779V37.9032H48.351C48.1329 37.9032 47.9148 38.1231 47.9148 38.2697V40.0293C47.9148 40.2492 48.1329 40.4691 48.351 40.4691H49.8779V42.4486C49.8779 42.6686 50.096 42.8152 50.3142 42.8152H52.0592C52.2773 42.8152 52.4227 42.5952 52.4227 42.4486V40.4691H56.1308C56.3489 40.4691 56.4944 40.2492 56.4944 40.0293V38.2697C56.4944 38.0498 56.3489 37.9032 56.1308 37.9032H52.4227V36.1436H55.1129C57.8758 36.1436 60.1298 33.7976 59.9843 31.0117C59.9116 28.4457 57.6577 26.3196 54.9675 26.3196ZM55.1129 33.5776H52.4227V28.8856H55.1129C56.4216 28.8856 57.4396 29.912 57.4396 31.2316C57.4396 32.5513 56.4216 33.5776 55.1129 33.5776Z" fill="#909BC2"/>
</svg>
